<?xml version="1.0" encoding="UTF-8" standalone="no"?>
<svg width="64px" height="64px" viewBox="0 0 64 64" version="1.1" xmlns="http://www.w3.org/2000/svg" xmlns:xlink="http://www.w3.org/1999/xlink" xmlns:sketch="http://www.bohemiancoding.com/sketch/ns">
    <!-- Generator: Sketch 3.3.2 (12043) - http://www.bohemiancoding.com/sketch -->
    <title>default-avatar</title>
    <desc>Created with Sketch.</desc>
    <defs>
        <circle id="path-1" cx="32" cy="32" r="32"></circle>
    </defs>
    <g id="[Check-ins]" stroke="none" stroke-width="1" fill="none" fill-rule="evenodd" sketch:type="MSPage">
        <g id="Edit-your-account" sketch:type="MSArtboardGroup" transform="translate(-16.000000, -154.000000)">
            <g id="Content" sketch:type="MSLayerGroup" transform="translate(-1.000000, 54.000000)">
                <g id="default-avatar" transform="translate(17.000000, 100.000000)">
                    <mask id="mask-2" sketch:name="Oval 45" fill="white">
                        <use xlink:href="#path-1"></use>
                    </mask>
                    <use id="Oval-45" opacity="0.5" fill="#A1ABB1" sketch:type="MSShapeGroup" xlink:href="#path-1"></use>
                    <path d="M32,0 C14.4,0 0,14.4 0,32 C0,49.6 14.4,64 32,64 C49.6,64 64,49.6 64,32 C64,14.4 49.6,0 32,0 L32,0 Z M32,9.6 C37.44,9.6 41.6,13.76 41.6,19.2 C41.6,24.64 37.44,28.8 32,28.8 C26.56,28.8 22.4,24.64 22.4,19.2 C22.4,13.76 26.56,9.6 32,9.6 L32,9.6 Z M32,55.04 C24,55.04 16.96,50.88 12.8,44.8 C12.8,38.4 25.6,34.88 32,34.88 C38.4,34.88 51.2,38.4 51.2,44.8 C47.04,50.88 40,55.04 32,55.04 L32,55.04 Z" id="Shape" fill="#F3F5F6" sketch:type="MSShapeGroup" mask="url(#mask-2)"></path>
                </g>
            </g>
        </g>
    </g>
</svg>